<?xml version="1.0" encoding="utf-8" ?>
<svg baseProfile="tiny" height="1024" version="1.2" width="1024" xmlns="http://www.w3.org/2000/svg" xmlns:ev="http://www.w3.org/2001/xml-events" xmlns:xlink="http://www.w3.org/1999/xlink"><defs /><polyline fill="black" points="451,203 450,204 443,204 442,205 439,205 438,206 435,206 434,207 431,207 430,208 428,208 427,209 425,209 424,210 422,210 421,211 420,211 419,212 418,212 417,213 416,213 415,214 414,214 413,215 412,215 410,217 409,217 406,220 405,220 402,223 401,223 387,237 386,237 383,240 382,240 379,243 378,243 375,246 374,246 372,248 371,248 369,250 368,250 366,252 365,252 363,254 362,254 361,255 360,255 358,257 357,257 356,258 355,258 354,259 353,259 351,261 350,261 349,262 348,262 347,263 346,263 345,264 344,264 343,265 342,265 341,266 340,266 339,267 338,267 337,268 336,268 335,269 334,269 333,270 332,270 331,271 330,271 329,272 328,272 327,273 326,273 325,274 324,274 323,275 322,275 321,276 320,276 319,277 318,277 317,278 316,278 315,279 314,279 313,280 312,280 311,281 310,281 309,282 308,282 307,283 306,283 305,284 303,284 302,285 301,285 300,286 299,286 298,287 297,287 296,288 295,288 294,289 293,289 292,290 291,290 290,291 288,291 287,292 286,292 285,293 284,293 283,294 282,294 281,295 280,295 279,296 278,296 277,297 275,297 274,298 273,298 272,299 271,299 270,300 269,300 268,301 266,301 265,302 264,302 263,303 262,303 261,304 259,304 258,305 257,305 256,306 255,306 254,307 252,307 251,308 250,308 249,309 248,309 247,310 246,310 245,311 243,311 242,312 241,312 240,313 238,313 237,314 236,314 235,315 234,315 233,316 232,316 231,317 229,317 228,318 227,318 226,319 225,319 224,320 223,320 222,321 221,321 219,323 218,323 217,324 216,324 214,326 213,326 212,327 211,327 208,330 207,330 204,333 203,333 197,339 197,340 195,342 195,343 193,345 193,346 192,347 192,348 191,349 191,351 190,352 190,353 189,354 189,356 188,357 188,360 187,361 187,363 186,364 186,367 185,368 185,372 184,373 184,377 183,378 183,382 182,383 182,387 181,388 181,393 180,394 180,398 179,399 179,404 178,405 178,409 177,410 177,414 176,415 176,419 175,420 175,424 174,425 174,430 173,431 173,435 172,436 172,440 171,441 171,446 170,447 170,452 169,453 169,458 168,459 168,463 167,464 167,470 166,471 166,476 165,477 165,482 164,483 164,488 163,489 163,494 162,495 162,500 161,501 161,506 160,507 160,511 159,512 159,518 158,519 158,524 157,525 157,531 156,532 156,537 155,538 155,543 154,544 154,549 153,550 153,555 152,556 152,562 151,563 151,568 150,569 150,574 149,575 149,580 148,581 148,586 147,587 147,592 146,593 146,598 145,599 145,604 144,605 144,610 143,611 143,616 142,617 142,622 141,623 141,627 140,628 140,633 139,634 139,640 138,641 138,646 137,647 137,652 136,653 136,658 135,659 135,665 134,666 134,672 133,673 133,679 132,680 132,686 131,687 131,693 130,694 130,700 129,701 129,708 128,709 128,715 127,716 127,723 126,724 126,730 125,731 125,736 124,737 124,743 123,744 123,749 122,750 122,755 121,756 121,761 120,762 120,768 119,769 119,774 118,775 118,780 117,781 117,786 116,787 116,792 115,793 115,799 114,800 114,808 113,809 113,812 114,813 114,817 115,818 115,819 116,820 116,821 121,826 122,826 123,827 125,827 126,828 233,828 234,827 236,827 237,826 238,826 239,825 240,825 245,820 245,819 246,818 246,817 247,816 247,814 248,813 248,809 249,808 249,801 250,800 250,794 251,793 251,786 252,785 252,779 253,778 253,771 254,770 254,763 255,762 255,756 256,755 256,748 257,747 257,741 258,740 258,733 259,732 259,726 260,725 260,719 261,718 261,712 262,711 262,705 263,704 263,698 264,697 264,692 265,691 265,686 266,685 266,680 267,679 267,674 269,672 270,673 270,682 271,683 271,693 272,694 272,703 273,704 273,714 274,715 274,724 275,725 275,739 276,740 276,762 277,763 277,786 278,787 278,811 279,812 279,815 280,816 280,817 281,818 281,819 282,820 282,821 285,824 286,824 288,826 289,826 290,827 292,827 293,828 730,828 731,827 733,827 734,826 735,826 738,823 739,823 739,822 741,820 741,819 742,818 742,817 743,816 743,813 744,812 744,797 745,796 745,777 746,776 746,757 747,756 747,735 748,734 748,724 749,723 749,714 750,713 750,706 751,705 751,697 752,696 752,688 753,687 753,680 754,679 754,675 755,674 756,675 756,679 757,680 757,685 758,686 758,691 759,692 759,698 760,699 760,705 761,706 761,712 762,713 762,719 763,720 763,726 764,727 764,734 765,735 765,741 766,742 766,748 767,749 767,756 768,757 768,763 769,764 769,771 770,772 770,779 771,780 771,786 772,787 772,794 773,795 773,801 774,802 774,808 775,809 775,813 776,814 776,816 777,817 777,818 778,819 778,820 783,825 784,825 786,827 789,827 790,828 897,828 898,827 900,827 901,826 902,826 908,820 908,819 909,818 909,816 910,815 910,807 909,806 909,800 908,799 908,794 907,793 907,786 906,785 906,780 905,779 905,773 904,772 904,766 903,765 903,760 902,759 902,754 901,753 901,747 900,746 900,741 899,740 899,735 898,734 898,728 897,727 897,721 896,720 896,713 895,712 895,706 894,705 894,699 893,698 893,691 892,690 892,684 891,683 891,677 890,676 890,671 889,670 889,664 888,663 888,658 887,657 887,652 886,651 886,645 885,644 885,639 884,638 884,633 883,632 883,627 882,626 882,621 881,620 881,616 880,615 880,609 879,608 879,603 878,602 878,597 877,596 877,591 876,590 876,585 875,584 875,579 874,578 874,572 873,571 873,566 872,565 872,559 871,558 871,553 870,552 870,546 869,545 869,540 868,539 868,533 867,532 867,527 866,526 866,520 865,519 865,514 864,513 864,507 863,506 863,501 862,500 862,495 861,494 861,489 860,488 860,483 859,482 859,477 858,476 858,471 857,470 857,464 856,463 856,459 855,458 855,453 854,452 854,448 853,447 853,442 852,441 852,437 851,436 851,431 850,430 850,426 849,425 849,420 848,419 848,415 847,414 847,410 846,409 846,404 845,403 845,399 844,398 844,394 843,393 843,388 842,387 842,383 841,382 841,378 840,377 840,373 839,372 839,368 838,367 838,363 837,362 837,359 836,358 836,355 835,354 835,353 834,352 834,350 833,349 833,348 832,347 832,346 830,344 830,343 818,331 817,331 814,328 813,328 811,326 810,326 809,325 808,325 807,324 806,324 804,322 803,322 802,321 800,321 799,320 798,320 797,319 796,319 795,318 794,318 793,317 792,317 791,316 789,316 788,315 787,315 786,314 785,314 784,313 782,313 781,312 780,312 779,311 778,311 777,310 775,310 774,309 773,309 772,308 771,308 770,307 769,307 768,306 766,306 765,305 764,305 763,304 762,304 761,303 760,303 759,302 757,302 756,301 755,301 754,300 753,300 752,299 751,299 750,298 749,298 748,297 746,297 745,296 744,296 743,295 742,295 741,294 740,294 739,293 738,293 737,292 735,292 734,291 733,291 732,290 731,290 730,289 729,289 728,288 727,288 726,287 725,287 724,286 723,286 722,285 721,285 720,284 719,284 718,283 717,283 716,282 715,282 714,281 713,281 712,280 711,280 710,279 709,279 708,278 706,278 705,277 704,277 703,276 702,276 701,275 700,275 699,274 698,274 697,273 696,273 695,272 694,272 693,271 691,271 690,270 689,270 688,269 687,269 686,268 685,268 684,267 683,267 682,266 681,266 680,265 679,265 678,264 677,264 676,263 675,263 674,262 673,262 672,261 671,261 669,259 668,259 667,258 666,258 664,256 663,256 661,254 660,254 658,252 657,252 655,250 654,250 651,247 650,247 646,243 645,243 641,239 640,239 632,231 631,231 624,224 623,224 620,221 619,221 616,218 615,218 613,216 612,216 610,214 609,214 608,213 607,213 606,212 605,212 604,211 603,211 602,210 601,210 600,209 598,209 597,208 595,208 594,207 592,207 591,206 589,206 588,205 584,205 583,204 576,204 575,203" stroke="black" stroke-width="1" /></svg>