<svg version="1.1" id="Layer_1" xmlns="http://www.w3.org/2000/svg" xmlns:xlink="http://www.w3.org/1999/xlink" x="0px" y="0px"
	 width="100%" viewBox="0 0 1024 1024" enable-background="new 0 0 1024 1024" xml:space="preserve">
<path fill="#000000" opacity="1.000000" stroke="none" 
	d="
M533.697754,619.819580 
	C534.991638,615.974121 536.362671,612.559204 537.325623,609.032959 
	C538.122559,606.114563 536.858582,604.855042 533.820984,605.909851 
	C530.208984,607.164062 527.560730,609.756836 525.223083,612.569824 
	C512.385132,628.017700 501.137512,644.468567 493.978668,663.408386 
	C491.235107,670.666870 486.538116,673.445068 478.915314,672.363281 
	C475.661926,671.901550 474.229919,669.594421 472.845276,666.659119 
	C461.606598,672.793274 449.598114,674.316772 437.827698,671.100769 
	C430.516815,669.103149 424.511139,672.019409 417.968140,672.728699 
	C407.757141,673.835510 398.349548,672.619202 390.130554,666.080505 
	C388.330627,664.648621 387.005096,664.964294 385.231934,666.048279 
	C372.282227,673.965210 358.216003,673.619751 344.086914,670.884827 
	C335.684265,669.258362 331.512482,662.051270 333.036102,653.527527 
	C333.284821,652.135925 333.613708,650.758667 333.667603,649.273193 
	C329.165314,656.260437 323.575287,662.117920 316.908386,666.908813 
	C307.741608,673.496155 297.817200,677.211609 287.132843,671.142944 
	C276.377350,665.033997 274.255463,654.462097 275.892700,643.323120 
	C278.439423,625.995911 285.548157,610.637817 299.500061,599.498047 
	C313.811981,588.070801 329.676270,582.557495 347.832153,590.198669 
	C350.362762,591.263733 351.769318,590.162598 353.346710,588.330200 
	C357.618927,583.367432 369.369629,582.777893 374.183044,587.302246 
	C376.981262,589.932495 376.027863,593.014221 374.655060,596.062500 
	C370.141449,606.085083 365.580322,616.088623 361.249115,626.190247 
	C357.970245,633.837524 355.002075,641.608032 352.949005,649.712891 
	C351.756042,654.422363 353.650116,657.162903 357.906586,658.520691 
	C364.039703,660.477051 370.018219,660.191406 375.765564,656.937561 
	C381.651764,653.605042 386.691956,649.302368 390.874146,644.030273 
	C400.302765,632.144592 409.133362,619.830261 417.128967,606.926208 
	C419.379425,603.294189 420.613129,599.905701 419.152130,595.250061 
	C417.338745,589.471375 418.231995,583.512878 423.622162,579.462097 
	C429.764008,574.846497 436.508148,572.255676 444.114471,575.614685 
	C448.641174,577.613647 449.134186,581.658752 447.771851,585.792908 
	C446.632568,589.250183 444.911926,592.530762 443.283081,595.807251 
	C441.862427,598.664978 442.238342,600.846680 444.210876,603.537720 
	C452.556854,614.923523 457.680634,627.310486 454.025146,641.806091 
	C452.510651,647.811646 449.131012,652.972107 445.156525,658.460571 
	C450.175446,660.394348 454.734863,660.479980 458.863037,658.997070 
	C469.191620,655.286438 477.108765,649.890930 480.127716,637.623291 
	C488.121613,605.139709 498.339172,573.251709 508.994202,541.531311 
	C512.501160,531.090942 515.478394,529.222412 526.253723,529.708191 
	C534.788208,530.093018 538.112976,534.716553 535.106995,542.696350 
	C529.120117,558.589600 522.814514,574.362488 516.751770,590.227600 
	C513.926208,597.621460 510.461884,604.801453 509.211487,612.906311 
	C513.581177,607.740051 517.934631,602.559937 522.324707,597.411011 
	C527.956970,590.805115 534.306274,585.521362 543.414917,584.287903 
	C556.998169,582.448669 565.542358,592.087952 561.349243,605.097778 
	C557.263733,617.773499 552.865967,630.348145 548.648071,642.981567 
	C544.737976,654.693115 547.879578,659.044128 560.200989,659.703613 
	C569.782104,660.216370 576.554443,655.056091 583.038086,649.129700 
	C584.169250,648.095703 584.446716,646.566345 584.779480,645.070068 
	C588.830872,626.850586 594.838074,609.184387 600.110535,591.311523 
	C602.296509,583.901245 616.979065,579.987793 622.838257,585.184265 
	C625.836670,587.843567 625.759827,591.271545 624.553833,594.856262 
	C619.246521,610.632568 613.893799,626.394897 608.774353,642.232422 
	C607.344116,646.657043 603.827820,651.786621 607.776733,655.867065 
	C612.371887,660.615356 619.096558,660.532837 625.200500,659.122131 
	C631.301575,657.712097 636.265930,653.867981 640.845093,649.637573 
	C642.469177,648.137207 642.622620,646.219055 642.859131,644.194336 
	C644.898193,626.739197 649.836670,610.590698 663.779785,598.585876 
	C670.962524,592.401611 678.873718,587.637695 688.390686,586.048401 
	C694.654907,585.002197 697.936218,586.819641 699.490295,592.117737 
	C713.449036,589.507263 721.215393,595.354309 721.108765,609.704773 
	C720.955444,630.343811 713.767273,648.661072 699.166504,663.334412 
	C689.020142,673.531067 676.151062,676.178528 662.178894,672.646667 
	C655.512268,670.961487 652.808044,669.017212 646.209900,661.938843 
	C645.809814,662.015259 645.211121,661.948059 644.898987,662.215393 
	C632.240540,673.058472 617.410889,673.652161 601.937317,671.466614 
	C597.031067,670.773621 593.194092,668.289856 589.984314,664.782104 
	C588.100830,662.723816 586.615662,662.188049 584.118408,664.006836 
	C569.366882,674.750671 552.931213,674.496338 536.326721,670.267090 
	C525.551208,667.522583 521.867798,660.223511 524.408386,649.226501 
	C526.699097,639.311157 530.311218,629.806152 533.697754,619.819580 
M693.947754,609.786560 
	C693.236389,605.161743 693.587830,600.591370 694.640625,595.898193 
	C688.831177,600.786499 684.370361,606.711914 680.104126,612.780640 
	C672.939880,622.971802 667.999573,634.175842 665.624390,646.410950 
	C664.792542,650.696472 664.454529,655.448669 668.715393,658.213318 
	C673.206299,661.127319 677.979553,660.125061 682.333801,657.310669 
	C686.647217,654.522705 689.536560,650.492615 691.899109,646.026855 
	C694.871277,640.408875 696.467346,634.269714 698.678101,628.361816 
	C700.609741,623.199951 701.343933,618.485474 696.317749,614.483826 
	C695.252563,613.635803 694.884583,611.911987 693.947754,609.786560 
M319.621307,647.137207 
	C329.236603,636.395691 336.571777,624.181885 342.699524,611.207275 
	C344.992737,606.351807 343.841034,604.505493 338.502625,604.090332 
	C335.303619,603.841614 332.191101,604.274231 329.257935,605.604980 
	C312.246399,613.323303 303.483002,627.344238 299.426453,644.886414 
	C299.061340,646.465393 299.232971,648.206665 299.365204,649.855774 
	C299.902435,656.555786 304.705139,659.111023 310.480408,655.809143 
	C314.014465,653.788635 316.582489,650.723083 319.621307,647.137207 
M414.362854,658.390625 
	C429.007172,652.943970 436.856201,629.843445 427.596527,619.024170 
	C420.546082,628.085266 413.503479,637.115295 406.495270,646.171814 
	C405.691956,647.209961 404.532806,648.937744 405.987854,649.639343 
	C409.903809,651.527466 410.435730,656.129150 414.362854,658.390625 
z"/>
<path fill="#000000" opacity="1.000000" stroke="none" 
	d="
M333.854858,476.007324 
	C311.229584,483.980988 288.477844,488.135254 264.794403,485.314026 
	C263.802765,485.195923 262.780457,485.241669 261.814087,485.025146 
	C260.013458,484.621735 257.959869,484.190247 258.033264,481.807068 
	C258.099792,479.647003 260.097992,479.302979 261.699005,479.117889 
	C301.728729,474.490631 334.111420,453.723145 365.163055,430.152557 
	C381.080902,418.069702 396.460938,405.261108 413.987915,395.410736 
	C441.282501,380.070801 470.396667,370.013702 501.246674,364.963379 
	C504.541290,364.424072 506.126495,363.269562 506.881622,359.921600 
	C510.278687,344.860504 518.550354,332.978729 530.647766,323.424622 
	C544.045593,312.843475 545.901001,294.534119 535.308960,281.629486 
	C525.148865,269.250977 506.830780,267.643372 494.155762,278.147491 
	C488.546387,282.796082 485.338928,288.905426 484.280029,296.118164 
	C484.110870,297.270447 484.108917,298.446777 483.953400,299.601715 
	C483.228149,304.988708 480.085968,308.070618 475.665405,307.767456 
	C471.431519,307.477112 468.726624,303.800842 468.746490,298.363831 
	C468.817505,278.932953 484.698334,260.411224 504.343597,256.847015 
	C533.037231,251.641174 558.400757,273.376862 557.186218,302.486664 
	C556.629639,315.827637 550.732605,326.796478 540.210083,335.122589 
	C533.023987,340.808777 527.191101,347.517761 523.788086,356.131592 
	C522.816956,358.589722 521.821289,361.068817 522.077454,364.126251 
	C531.036804,366.093323 540.001709,367.775513 548.814941,370.046661 
	C585.161133,379.412933 617.895264,395.968597 647.145630,419.539185 
	C664.149658,433.241394 681.631409,446.312195 700.657288,457.173370 
	C720.092041,468.267914 740.586670,476.257568 762.966431,478.900177 
	C765.037903,479.144806 767.996704,479.162811 767.851624,482.016571 
	C767.678406,485.423126 764.352783,484.970856 762.001343,485.232971 
	C730.521240,488.741516 701.228149,481.158539 672.982605,467.872528 
	C656.475708,460.108093 642.079590,448.807526 625.973267,440.400421 
	C594.774292,424.115326 561.718384,413.894379 526.700562,410.235504 
	C497.044159,407.136841 468.818298,414.189362 440.945007,423.020752 
	C418.098267,430.259521 396.860779,440.895721 376.956390,454.288788 
	C363.638580,463.249908 349.262299,470.252869 333.854858,476.007324 
z"/>
<path fill="#000000" opacity="1.000000" stroke="none" 
	d="
M216.386765,611.496521 
	C223.192825,581.270386 229.879471,551.445129 236.735367,520.864990 
	C226.998566,521.918335 219.738434,526.184631 214.797043,533.723511 
	C208.640610,543.116089 206.631226,553.385864 211.300400,564.103027 
	C212.975311,567.947510 210.521530,568.459961 208.047302,569.042542 
	C196.649872,571.725830 186.426682,564.082825 185.634033,552.367920 
	C184.414307,534.340820 192.093842,521.296692 208.770340,513.615295 
	C225.478348,505.919373 243.041122,504.824646 261.057068,507.118042 
	C275.055176,508.899963 289.079102,511.604156 303.176453,507.741333 
	C304.781494,507.301483 306.396606,506.889893 307.979889,506.380798 
	C314.626373,504.243652 315.168610,504.644196 315.319519,511.929321 
	C315.636902,527.248962 308.774200,535.879822 294.816895,537.707642 
	C291.276398,538.171387 287.817627,537.516296 284.512482,536.445374 
	C279.611298,534.857300 274.715759,533.160461 270.013550,531.069763 
	C261.645966,527.349304 262.201477,527.118103 260.225372,536.445068 
	C257.468262,549.458435 254.620773,562.452576 251.839066,575.460815 
	C251.459808,577.234375 251.237198,579.041382 250.850433,581.389099 
	C258.450806,583.280701 265.787689,584.727478 273.443115,582.709351 
	C278.001678,581.507751 279.366180,582.627197 279.464325,587.388123 
	C279.611908,594.544678 273.408173,600.165039 265.145660,600.210083 
	C260.780731,600.233948 256.520264,599.253235 252.419586,597.897888 
	C248.511932,596.606323 247.049500,597.990051 246.265762,601.764404 
	C242.410995,620.328430 238.331512,638.845642 234.408737,657.395752 
	C231.777054,669.840515 220.702271,676.286865 208.293472,672.666809 
	C204.328751,671.510193 203.070206,669.624756 204.076569,665.393616 
	C208.308395,647.601624 212.231354,629.736084 216.386765,611.496521 
z"/>
<path fill="#000000" opacity="1.000000" stroke="none" 
	d="
M840.373108,657.069946 
	C837.938599,664.176270 831.939087,666.894653 826.154175,669.119690 
	C814.403198,673.639526 802.198303,674.630249 789.901733,671.154907 
	C779.205017,668.131714 774.623169,660.968323 776.799377,650.047913 
	C779.285217,637.573181 784.199036,625.889954 789.328735,614.310852 
	C789.935669,612.940918 790.646484,611.612000 791.172363,610.212585 
	C791.825317,608.475037 792.420288,606.541687 790.781311,605.108215 
	C789.042480,603.587524 787.259399,604.822632 785.723816,605.722107 
	C778.016724,610.236267 772.792969,617.168884 768.129883,624.501404 
	C759.808105,637.587158 752.389954,651.155701 747.014404,665.769470 
	C744.768433,671.875427 736.457153,675.482666 730.427002,673.054626 
	C727.040466,671.690979 726.349976,669.009766 727.157532,665.668396 
	C730.790283,650.636475 734.309021,635.576477 738.030334,620.566650 
	C740.550659,610.400940 743.265381,600.281433 746.030029,590.178711 
	C748.430847,581.406067 759.267029,577.056213 767.259521,581.549255 
	C770.124939,583.160095 770.266724,585.708862 769.446045,588.484192 
	C767.278320,595.813965 765.073730,603.132812 763.551880,611.017761 
	C765.188171,609.162354 766.851074,607.329529 768.456116,605.447510 
	C774.756714,598.059509 781.535889,591.189392 790.149963,586.489990 
	C795.677185,583.474609 801.477356,581.662170 807.869934,583.833008 
	C815.008118,586.256836 818.629822,591.707947 817.680115,599.208557 
	C816.221069,610.732056 811.427673,621.252197 807.562500,632.046936 
	C805.430603,638.000854 803.151306,643.904419 801.141846,649.898865 
	C799.464844,654.901367 800.941223,657.336243 806.009521,658.817139 
	C817.494080,662.172852 825.928040,656.514832 833.920105,649.466980 
	C835.246765,648.296997 835.993164,646.371887 838.431641,646.106995 
	C841.134644,649.179199 841.013672,652.877136 840.373108,657.069946 
z"/>
<path fill="#000000" opacity="1.000000" stroke="none" 
	d="
M621.772339,764.204834 
	C623.156372,765.344299 624.928955,765.951233 624.203430,767.877747 
	C623.510620,769.717163 621.733826,769.309082 620.303955,769.257996 
	C614.314270,769.044250 609.216980,767.126770 606.098328,761.556763 
	C604.227600,758.215454 602.364136,754.866516 600.361267,751.604614 
	C599.580261,750.332764 598.404480,749.086304 596.685791,749.596558 
	C595.027344,750.088806 595.242798,751.736877 595.358765,752.995789 
	C595.783203,757.601013 593.307068,763.124023 600.241943,765.609863 
	C602.305115,766.349487 600.707031,768.695740 598.739014,768.767273 
	C592.918396,768.979004 587.086487,768.915222 581.259338,768.885010 
	C580.254333,768.879822 579.249207,768.426575 578.993958,767.283325 
	C578.670593,765.834900 579.583191,765.120361 580.814148,764.774719 
	C584.279602,763.801941 584.724426,761.166260 584.694885,758.115784 
	C584.632019,751.617615 584.770447,745.116760 584.653870,738.620117 
	C584.551758,732.929382 586.748108,726.325317 578.963867,723.857300 
	C579.632141,721.214600 581.396912,721.659912 582.762634,721.650085 
	C589.927002,721.598633 597.093445,721.568481 604.256470,721.691528 
	C610.176758,721.793152 615.041870,723.834106 617.300049,729.850037 
	C619.353394,735.320312 618.104736,739.454773 612.409546,744.197083 
	C610.195923,746.040283 610.158997,747.577759 611.479126,749.698547 
	C614.556641,754.642517 617.337585,759.793579 621.772339,764.204834 
M606.470520,732.260559 
	C605.924316,730.505432 605.345520,728.749878 603.876099,727.520447 
	C601.873535,725.844971 599.561096,724.695740 596.999146,725.752014 
	C594.624390,726.731079 595.403809,729.149048 595.350281,731.050781 
	C595.261536,734.205566 595.262024,737.366333 595.343262,740.521545 
	C595.446899,744.550964 597.303467,745.788940 601.116821,744.188293 
	C606.091431,742.100159 606.980469,737.842651 606.470520,732.260559 
z"/>
<path fill="#000000" opacity="1.000000" stroke="none" 
	d="
M494.187531,766.002075 
	C483.743317,758.618225 480.010529,746.804932 484.436005,735.945068 
	C489.094940,724.512268 500.800385,718.586731 514.458496,720.746948 
	C526.055176,722.581177 534.334229,731.860840 535.034851,743.810120 
	C536.105164,762.064148 516.597229,775.086487 498.552063,768.141479 
	C497.159515,767.605530 495.851044,766.851074 494.187531,766.002075 
M502.094543,726.468994 
	C493.777130,733.600952 492.531097,750.115234 499.582611,759.760742 
	C505.861298,768.349121 516.320740,767.340515 520.489563,757.558044 
	C524.233643,748.772217 523.275757,740.002625 519.187988,731.560242 
	C516.577820,726.169617 508.949402,722.145874 502.094543,726.468994 
z"/>
<path fill="#000000" opacity="1.000000" stroke="none" 
	d="
M697.365479,762.571899 
	C698.798035,760.719788 699.958374,759.102478 701.045959,757.437561 
	C701.696594,756.441589 702.248291,755.335205 703.712158,755.694214 
	C705.165100,756.050537 705.201355,757.235779 705.255066,758.454224 
	C705.588745,766.025879 702.802979,769.011292 695.282837,769.024658 
	C686.788696,769.039734 678.294373,769.053284 669.800659,768.993408 
	C668.067566,768.981201 665.656799,769.538574 665.182800,767.189026 
	C664.706421,764.827637 667.135681,765.030701 668.606873,764.525391 
	C671.106079,763.667114 671.618835,761.636902 671.622681,759.343079 
	C671.638855,749.683167 671.352295,740.010925 671.768799,730.368774 
	C671.964417,725.840027 667.527222,725.896240 666.031982,723.407898 
	C666.897095,721.258850 668.581421,721.649841 669.988220,721.644775 
	C678.981750,721.612366 687.975586,721.629456 696.969055,721.677185 
	C698.584900,721.685791 700.773376,721.390015 701.000732,723.600281 
	C701.299866,726.509033 702.939514,729.591797 701.279297,732.348572 
	C700.257874,734.044556 698.655518,733.121643 697.778320,731.585022 
	C696.794312,729.861206 696.210876,727.726379 694.230164,726.906921 
	C690.966980,725.556824 687.428711,724.464661 684.086792,726.121521 
	C681.024780,727.639648 682.358887,730.918152 682.468018,733.374817 
	C682.591003,736.142883 680.647217,740.177002 684.154663,741.432373 
	C687.802002,742.737793 692.198608,742.908508 694.401367,738.064636 
	C694.760132,737.275757 695.586731,736.914246 696.506348,737.069458 
	C697.717957,737.274048 698.135864,738.204712 698.153381,739.239380 
	C698.212341,742.733948 698.215332,746.230530 698.163635,749.725281 
	C698.148438,750.749084 697.779297,751.724915 696.583435,751.971802 
	C695.428955,752.210083 694.576904,751.593750 694.160706,750.641541 
	C693.096191,748.205566 691.305908,747.257385 688.676575,747.138306 
	C682.959961,746.879272 682.799255,747.356628 682.269836,753.054382 
	C681.054382,766.134827 688.110168,765.999329 697.365479,762.571899 
z"/>
<path fill="#000000" opacity="1.000000" stroke="none" 
	d="
M423.227234,732.239136 
	C423.240601,741.362427 423.290833,750.019287 423.235870,758.675476 
	C423.215942,761.811462 423.768219,764.352234 427.523315,764.768738 
	C428.730957,764.902710 429.964569,765.292358 429.995728,766.737366 
	C430.034088,768.514099 428.545685,768.897705 427.212769,768.913696 
	C420.889557,768.989929 414.564819,768.980042 408.241089,768.933350 
	C407.063110,768.924683 405.803680,768.586548 405.547119,767.182800 
	C405.212524,765.352417 406.592560,764.936157 407.966827,764.731750 
	C411.470001,764.210388 411.933746,761.715149 411.930511,758.842407 
	C411.920197,749.686401 411.997711,740.529541 411.883179,731.375000 
	C411.858612,729.411194 413.032104,726.401978 410.123444,725.843262 
	C407.464691,725.332581 404.423248,725.569153 402.176514,727.758057 
	C401.594910,728.324646 401.260468,729.136841 400.759460,729.795959 
	C399.492554,731.462524 400.011566,735.457275 396.799835,734.407837 
	C394.164886,733.546814 395.915833,730.266785 395.719269,728.080627 
	C395.556702,726.272888 395.737244,724.419556 395.912384,722.600525 
	C396.072601,720.936279 396.830109,719.495605 398.794922,720.197876 
	C406.760712,723.044861 414.968353,721.156616 423.052307,721.517029 
	C427.317932,721.707214 431.738190,722.311951 435.820251,720.216431 
	C435.964966,720.142212 436.136536,720.111877 436.299500,720.082886 
	C439.145081,719.576538 439.576050,721.706604 439.192963,723.446655 
	C438.384460,727.119324 441.913208,731.266113 438.060089,734.437317 
	C437.338531,735.031250 436.248016,733.993835 435.815613,732.989319 
	C435.289459,731.766968 434.874939,730.487061 434.250793,729.318176 
	C432.382294,725.819031 428.906494,725.236084 425.629913,725.643555 
	C421.952576,726.100830 423.645264,729.543945 423.227234,732.239136 
z"/>
<path fill="#000000" opacity="1.000000" stroke="none" 
	d="
M350.389526,732.417786 
	C348.023224,735.145691 347.202759,733.072510 346.393188,731.425415 
	C345.035522,728.663269 343.321472,726.278442 340.369843,725.062500 
	C336.947510,723.652649 334.003693,724.545776 332.153931,727.596069 
	C330.420563,730.454224 330.755707,733.584412 333.595276,735.603394 
	C336.555756,737.708313 339.882660,739.297913 343.049500,741.112549 
	C351.608826,746.017212 354.702240,751.873596 352.374023,758.766174 
	C349.882416,766.142456 341.251984,771.048584 332.695404,769.952820 
	C322.774323,768.682312 320.500671,766.250183 320.709534,757.097229 
	C320.738953,755.809082 320.405701,754.267456 322.132355,753.770386 
	C323.888672,753.264771 324.406799,754.715332 325.008484,755.878235 
	C326.388489,758.545471 327.802734,761.196716 330.159973,763.151489 
	C334.143280,766.454773 338.560547,766.428833 341.259766,763.150269 
	C343.931854,759.904663 343.036560,755.504761 338.741150,752.464600 
	C336.041962,750.554321 332.951569,749.207336 330.144012,747.437378 
	C322.721191,742.758057 320.100952,736.964417 322.311188,730.425049 
	C324.448303,724.101990 331.315033,719.908752 338.988434,720.240906 
	C349.146942,720.680603 350.024689,721.583008 350.389526,732.417786 
z"/>
<path fill="#000000" opacity="1.000000" stroke="none" 
	d="
M618.968384,553.010742 
	C614.045166,547.513000 615.506287,542.068237 617.935669,536.454712 
	C620.129578,531.385376 624.143677,529.250732 629.307373,528.921143 
	C637.671692,528.387268 643.444275,535.360779 641.628235,543.559692 
	C639.589783,552.762939 628.701599,561.061890 618.968384,553.010742 
z"/>
</svg>