<svg version="1.1" id="Layer_1" xmlns="http://www.w3.org/2000/svg" xmlns:xlink="http://www.w3.org/1999/xlink" x="0px" y="0px"
	 width="100%" viewBox="0 0 1024 864" enable-background="new 0 0 1024 864" xml:space="preserve">
<path fill="#000000" opacity="1.000000" stroke="none" 
	d="
M836.323120,582.971558 
	C833.708740,615.120056 823.079102,643.278381 798.834900,664.768433 
	C780.206177,681.280945 748.260132,682.402832 730.071289,668.207703 
	C726.622009,665.515869 723.937622,662.146851 721.576233,658.843262 
	C719.449707,658.513123 718.438049,659.791382 717.358398,660.743713 
	C704.489868,672.095093 688.971252,675.508362 672.418213,675.700439 
	C668.094299,675.750610 663.753174,675.488037 659.440735,675.122803 
	C649.247681,674.259338 640.432739,670.455078 633.630798,662.560608 
	C632.872131,661.680115 632.054504,660.847595 631.225220,660.032471 
	C631.003296,659.814331 630.637329,659.742737 629.956360,659.427307 
	C624.912048,662.789734 620.177429,667.088928 614.269775,669.482361 
	C593.356262,677.955383 571.968323,678.479797 550.724060,671.688904 
	C534.968750,666.652527 529.966248,655.675659 534.146301,639.450867 
	C539.222717,619.746704 546.390564,600.731506 553.051514,581.546875 
	C553.996338,578.825378 556.355469,575.552002 553.610291,573.197815 
	C550.527466,570.554077 547.265991,573.289551 544.518311,574.928406 
	C536.590942,579.656555 531.221375,587.021790 525.935303,594.265869 
	C509.804962,616.370911 494.559052,638.994202 485.466003,665.168884 
	C482.525574,673.632935 468.692749,678.390503 460.614777,674.366211 
	C457.458618,672.793823 456.341949,669.891785 455.254272,666.985046 
	C453.249512,666.233215 451.994385,667.684937 450.573364,668.356934 
	C431.893585,677.190308 412.689026,677.590820 393.174561,671.802124 
	C390.161652,670.908325 387.666687,671.527954 384.972412,672.504944 
	C372.093628,677.175171 358.897034,677.418701 345.608368,674.889832 
	C338.606232,673.557312 332.359863,670.325439 327.116821,665.488831 
	C324.671661,663.233276 322.769501,663.316223 320.140167,665.125366 
	C307.036011,674.141663 292.048798,675.942749 276.716827,675.685730 
	C270.436646,675.580505 264.130157,675.114319 257.906250,673.557678 
	C243.886780,670.051392 237.799683,661.524536 239.773041,647.243591 
	C240.173599,644.344849 240.869492,641.486938 241.079712,638.420593 
	C237.104202,644.185547 233.170334,649.888550 228.304138,654.883545 
	C221.171356,662.205200 213.519165,668.862488 204.272949,673.375244 
	C176.212814,687.070374 148.435654,668.252014 151.131058,636.961487 
	C153.682846,607.338196 165.619232,581.888611 188.869293,562.899719 
	C205.656891,549.188965 225.059952,541.877014 247.283279,544.791138 
	C252.432343,545.466431 257.348053,547.182739 261.960876,549.505493 
	C265.409668,551.242188 267.875427,550.961975 269.962433,547.554626 
	C274.289276,540.490601 280.552795,538.389648 288.444061,540.548401 
	C291.330078,541.337891 294.298340,541.826172 297.186005,542.610352 
	C305.134521,544.768616 307.182739,549.185303 303.758698,556.852295 
	C297.782074,570.234985 291.643402,583.546082 285.759521,596.969116 
	C279.740082,610.701294 274.074554,624.594238 270.200470,639.108765 
	C267.529449,649.115845 270.125031,652.799866 280.093231,655.222168 
	C295.850800,659.051453 308.037079,652.309631 318.975647,642.216675 
	C331.939240,630.255249 341.295807,615.346252 351.594421,601.228333 
	C358.764038,591.399780 365.552826,581.312744 371.548187,570.703430 
	C373.841949,566.644409 374.096771,562.796509 372.464569,558.322998 
	C368.280273,546.854675 371.999634,536.619385 382.426178,530.398682 
	C389.578979,526.131165 397.102844,523.420166 405.737671,525.503174 
	C415.385406,527.830444 419.117401,534.217102 415.427094,543.348083 
	C413.121216,549.053467 410.387909,554.593323 407.683777,560.127991 
	C406.085968,563.398254 406.828247,565.616455 409.073730,568.587036 
	C423.273224,587.371582 432.086273,607.656860 424.303131,631.775330 
	C422.085388,638.647705 418.445709,644.869080 414.053009,650.560730 
	C411.305420,654.120789 412.479187,655.390991 416.295898,656.108948 
	C429.433441,658.580444 440.438812,653.684204 450.875366,646.444336 
	C458.313904,641.284180 462.604492,634.633301 464.902649,625.583313 
	C475.680664,583.139954 488.677917,541.326050 502.118134,499.655243 
	C505.337769,489.672913 508.630402,479.713287 511.987213,469.776276 
	C514.825684,461.373871 520.400696,456.510773 529.605286,456.082092 
	C534.160339,455.869995 538.609314,456.266785 542.986816,457.284882 
	C549.269104,458.746002 552.985962,464.573669 551.558228,470.915771 
	C549.426880,480.382874 545.138794,489.111786 541.675598,498.110901 
	C531.209106,525.308228 520.510742,552.416199 509.925903,579.567993 
	C509.032349,581.860107 508.311432,584.219482 507.214355,587.407532 
	C510.124084,586.250732 511.041290,584.286255 512.302673,582.757019 
	C521.521606,571.580750 530.178345,559.873352 541.123840,550.271301 
	C550.208374,542.301758 560.957520,538.697205 573.042419,540.653625 
	C587.686584,543.024475 595.519470,554.538269 591.301208,568.770203 
	C586.053467,586.475830 579.707520,603.855591 573.856445,621.383057 
	C571.906494,627.224365 569.641052,632.982422 568.541504,639.069031 
	C566.911316,648.092834 569.996582,652.398132 578.802734,654.775208 
	C597.266418,659.758911 611.572815,652.352234 624.332214,640.001465 
	C625.818848,638.562439 626.366760,636.717041 626.806030,634.685852 
	C633.113586,605.521240 642.781799,577.311279 651.314819,548.777954 
	C652.863892,543.597961 656.379822,540.793823 661.588745,539.755310 
	C667.529907,538.570740 673.487732,538.166504 679.451843,539.308167 
	C687.224670,540.795959 690.773376,547.064331 688.259949,554.572754 
	C679.803650,579.834900 671.323364,605.088989 662.925720,630.370605 
	C661.616089,634.313416 660.503723,638.343567 659.630920,642.404419 
	C658.455078,647.875488 660.013428,651.127258 665.265198,653.128235 
	C675.541199,657.043457 685.949280,658.268372 696.144409,652.748352 
	C699.506104,650.928101 702.734009,648.852295 705.967651,646.805664 
	C712.900330,642.417847 716.223145,636.991211 717.148254,627.924255 
	C720.617432,593.923279 735.277527,566.240784 766.793762,549.606262 
	C773.666565,545.978699 780.879639,543.633118 788.590210,542.828491 
	C791.612854,542.513123 794.606262,542.864319 797.429321,544.017029 
	C803.010437,546.295898 803.431641,550.764771 798.945068,554.711975 
	C773.918518,576.729797 757.325317,603.840759 750.656799,636.634766 
	C749.402161,642.805054 749.148621,649.722595 755.374939,653.929810 
	C762.037537,658.431824 769.081970,657.327209 775.669373,653.392639 
	C783.670105,648.613892 789.065308,641.456543 792.810547,633.082520 
	C797.507751,622.579834 801.281006,611.735229 804.205566,600.593262 
	C805.375488,596.135986 804.636414,592.539734 800.994751,589.395020 
	C791.942871,581.578247 792.529236,566.855225 798.007141,557.607666 
	C799.981628,554.274353 803.417969,552.758667 807.029968,551.773193 
	C819.798401,548.289307 832.172058,556.126831 835.183594,569.578674 
	C836.135315,573.829773 836.381836,578.145447 836.323120,582.971558 
M191.176331,619.659607 
	C188.393433,626.872681 186.557709,634.255981 187.386230,642.069153 
	C188.362823,651.278625 195.792770,655.214111 203.958939,650.907715 
	C208.934555,648.283813 212.513702,644.088257 216.229721,640.048462 
	C232.614334,622.236023 245.026382,601.834778 255.314728,580.049500 
	C258.183167,573.975647 256.487732,571.054138 249.791260,570.271606 
	C241.634979,569.318481 234.368423,571.830078 227.378464,575.661560 
	C209.694260,585.355042 198.949020,600.800659 191.176331,619.659607 
M390.648621,615.292786 
	C390.387939,607.335754 390.239380,599.349304 385.148346,591.517761 
	C382.178406,595.815186 379.967010,599.106750 377.662933,602.332214 
	C369.623840,613.585693 360.945068,624.341187 352.240692,635.080872 
	C350.778381,636.885132 347.676971,639.363342 351.902863,641.446350 
	C356.120667,643.525452 358.638367,646.871033 360.023315,651.095398 
	C360.973969,653.995239 362.653229,654.599121 365.343628,653.962524 
	C369.667114,652.939392 373.384094,650.856018 376.649780,647.881592 
	C385.986664,639.377441 389.201141,628.180237 390.648621,615.292786 
z"/>
<path fill="#000000" opacity="1.000000" stroke="none" 
	d="
M775.276245,366.845428 
	C752.177917,356.913086 731.437927,343.640503 710.521484,330.533905 
	C670.594666,305.515106 626.951843,289.503632 581.047302,279.387329 
	C560.533936,274.866638 539.777649,271.764954 518.851074,270.624939 
	C505.242493,269.883606 491.635803,272.371948 478.168488,274.466431 
	C439.987213,280.404541 403.145172,291.041138 367.678650,306.486237 
	C343.742035,316.910248 321.848053,330.843475 299.778320,344.584625 
	C270.013245,363.117004 238.151978,376.834198 203.685730,384.060120 
	C179.031433,389.228943 154.209259,390.506775 129.192581,387.239197 
	C126.571785,386.896912 124.010918,386.299316 123.931282,383.062714 
	C123.859398,380.140930 126.060104,379.115814 128.574890,378.842194 
	C179.155823,373.337463 222.489822,350.660736 263.422760,322.160309 
	C286.682831,305.964966 308.376007,287.698975 331.343475,271.131897 
	C375.920441,238.977264 425.508484,218.199707 479.121765,206.756775 
	C486.601868,205.160278 494.161072,203.895218 501.725037,202.750137 
	C504.755768,202.291321 506.031708,200.718750 506.554840,197.967255 
	C511.226196,173.396454 524.393311,154.388824 543.875000,138.996735 
	C558.217773,127.664810 564.244873,112.291138 560.284424,94.169724 
	C556.337952,76.112221 544.763611,64.007431 526.900818,59.983692 
	C496.274658,53.084927 472.605499,75.039825 471.313263,101.607338 
	C471.091003,106.176514 470.219299,110.324905 466.209717,112.923042 
	C462.662964,115.221306 458.717804,115.719223 454.801758,113.648521 
	C450.790619,111.527542 448.763916,108.224388 448.607117,103.581871 
	C447.776886,78.996582 463.653717,53.296783 486.275604,42.787949 
	C529.826660,22.556629 578.492615,49.233967 583.760559,96.974236 
	C586.453491,121.378883 577.128906,141.810883 557.849365,157.138702 
	C544.523499,167.733246 534.778442,180.493591 530.089661,197.014954 
	C528.958740,200.999878 529.577698,202.473984 533.983337,203.198380 
	C592.680054,212.849060 647.164124,233.468185 696.064087,267.564972 
	C717.365906,282.418243 737.419373,299.048767 758.345154,314.457428 
	C786.057251,334.863251 815.084961,353.046753 847.530090,365.223907 
	C865.083740,371.812042 883.125183,376.281616 901.703674,378.647736 
	C904.841248,379.047333 908.812744,378.866638 908.708130,383.208771 
	C908.612000,387.200378 904.749817,386.989410 901.812256,387.344238 
	C858.692688,392.552216 817.643860,384.527466 777.935364,367.946289 
	C777.167542,367.625641 776.394531,367.317688 775.276245,366.845428 
z"/>
<path fill="#000000" opacity="1.000000" stroke="none" 
	d="
M113.250153,531.895264 
	C112.230026,535.320007 113.080261,536.763794 116.506401,537.200317 
	C128.204559,538.690369 139.873810,541.361694 151.479965,536.733337 
	C154.144333,535.670837 155.044800,537.585205 155.909805,539.457581 
	C158.891235,545.911194 156.309418,554.484314 149.970306,559.516296 
	C143.245697,564.854370 135.523193,565.124878 127.624588,563.707886 
	C121.120544,562.541077 114.709564,560.855408 107.562347,559.242920 
	C105.423805,569.009827 103.335823,578.375549 101.326157,587.758057 
	C96.483734,610.365723 91.638298,632.972839 86.868690,655.595947 
	C82.233788,677.580139 57.203053,680.598022 42.636688,674.029419 
	C39.916485,672.802734 39.897644,670.916809 40.500599,668.283875 
	C49.858387,627.420593 59.135551,586.538818 68.384598,545.650757 
	C75.761398,513.039368 83.080559,480.414978 90.399101,447.790497 
	C90.755440,446.201996 91.294220,444.581940 90.744705,442.917480 
	C64.317802,442.181122 35.215900,480.148529 53.711239,513.388611 
	C44.016434,520.899353 27.478331,518.169556 19.329788,507.658447 
	C11.549438,497.622284 11.049885,486.229218 13.255816,474.351135 
	C16.590000,456.397949 26.923176,443.536530 42.527618,434.741425 
	C57.727859,426.174194 74.298424,422.343903 91.582832,420.605255 
	C110.392693,418.713074 128.798340,421.825623 147.264954,424.099487 
	C167.204025,426.554657 186.795486,426.555878 205.768585,418.894440 
	C208.158783,417.929291 210.461914,417.287048 211.077652,420.791382 
	C213.642990,435.391174 212.690079,449.234650 200.850662,459.949524 
	C190.306610,469.492035 177.880554,470.225311 164.772781,466.527771 
	C154.470612,463.621613 144.727234,459.292297 135.078232,454.758759 
	C131.492920,453.074188 129.861145,453.478699 128.975113,457.771362 
	C123.895882,482.378937 118.557175,506.932983 113.250153,531.895264 
z"/>
<path fill="#000000" opacity="1.000000" stroke="none" 
	d="
M967.183228,619.063538 
	C964.624512,625.988281 962.169922,632.538574 959.805481,639.121399 
	C956.184082,649.203796 959.804626,654.113708 970.618713,655.847961 
	C988.037292,658.641296 1000.199524,649.708252 1011.732239,638.791016 
	C1013.228821,637.374329 1013.997070,634.458557 1016.571777,635.088074 
	C1019.242004,635.740906 1019.331299,638.683350 1019.754517,640.872437 
	C1021.419312,649.483032 1019.843506,656.690063 1012.174255,662.454651 
	C999.892212,671.686340 985.910278,675.105164 971.079773,676.125000 
	C960.896790,676.825195 950.786377,676.306519 940.936096,673.090332 
	C925.306030,667.987000 918.872070,657.148743 922.325745,641.080627 
	C926.408386,622.086304 933.534302,604.154175 941.607300,586.559143 
	C942.992676,583.539551 944.369873,580.469177 945.273315,577.286682 
	C946.617432,572.552063 944.203308,570.184692 939.373840,571.295898 
	C935.699219,572.141418 932.823608,574.495300 929.979553,576.810181 
	C916.096558,588.109802 907.182373,603.188599 898.615662,618.469543 
	C889.980530,633.872559 881.687622,649.449951 875.734192,666.166382 
	C872.511780,675.214600 857.929810,680.563782 849.519775,676.024231 
	C844.965027,673.565613 844.921204,669.517883 845.965027,665.173584 
	C849.891907,648.830688 853.687988,632.454773 857.786499,616.154968 
	C863.427917,593.718689 869.494812,571.388123 874.997925,548.918762 
	C878.235596,535.699646 886.691711,534.386719 896.031189,534.129272 
	C898.506287,534.061035 901.008728,534.523621 903.480164,534.873108 
	C910.090393,535.807861 912.567383,539.186768 910.749451,545.699402 
	C907.930298,555.799011 904.659851,565.771912 901.681946,575.828552 
	C901.136658,577.669922 899.941101,579.460815 900.890442,582.562317 
	C905.038330,577.857422 908.764404,573.547668 912.580017,569.318848 
	C923.246643,557.497253 934.541870,546.458496 949.768921,540.542908 
	C956.157715,538.060974 962.694153,537.535095 969.351501,539.508545 
	C980.548706,542.827942 986.269348,552.001587 984.753540,563.577209 
	C982.894714,577.771667 977.453735,590.870544 972.793701,604.213806 
	C971.092163,609.085815 969.156494,613.876099 967.183228,619.063538 
z"/>
<path fill="#000000" opacity="1.000000" stroke="none" 
	d="
M647.097351,793.745789 
	C643.529053,792.788330 643.064392,794.778748 643.066772,797.240906 
	C643.071167,801.736511 643.136169,806.233154 643.063721,810.727478 
	C643.001099,814.613770 644.520386,817.113953 648.570251,817.729675 
	C650.479797,818.020020 652.316528,818.565125 652.008362,821.071594 
	C651.684753,823.703735 649.520996,823.349915 647.757446,823.373718 
	C638.935059,823.492615 630.111938,823.582764 621.288879,823.601868 
	C619.481079,823.605774 617.380066,823.590393 617.210327,821.007507 
	C617.050598,818.576721 618.774719,817.970398 620.758179,817.739441 
	C625.096375,817.234253 626.662903,814.393616 626.673096,810.449646 
	C626.713013,794.964172 626.714661,779.478516 626.674500,763.993042 
	C626.664917,760.283569 625.190613,757.575073 621.180847,756.788147 
	C619.313232,756.421570 617.488831,755.731201 617.836365,753.276123 
	C618.205933,750.665771 620.418274,751.021057 622.143982,751.014160 
	C633.299805,750.969727 644.456909,750.938049 655.611450,751.078308 
	C659.274170,751.124268 662.856323,751.969666 666.307068,753.338196 
	C672.993530,755.989868 676.593262,760.892090 677.453125,767.981018 
	C678.333435,775.238342 675.930603,781.056824 670.027771,785.367065 
	C668.429199,786.534302 666.682800,787.499023 664.341431,788.974426 
	C670.795044,799.296570 675.612244,810.510498 685.438599,818.241638 
	C686.779053,819.296387 688.348877,819.942688 687.751953,822.088989 
	C687.172485,824.172546 685.553772,824.321777 683.817627,824.330017 
	C673.388550,824.379578 664.375122,821.750732 659.101624,811.658081 
	C656.867798,807.382812 654.365417,803.247803 651.986633,799.048218 
	C650.831848,797.009460 649.657166,794.989258 647.097351,793.745789 
M647.844788,787.123108 
	C659.582947,786.571777 662.813538,773.842529 659.457397,764.802979 
	C657.527954,759.605896 652.907166,756.760376 647.335205,757.093567 
	C644.438721,757.266846 643.090393,758.549866 643.095825,761.425171 
	C643.109924,768.918091 643.112732,776.411194 643.062744,783.903809 
	C643.043945,786.729736 644.241211,787.931213 647.844788,787.123108 
z"/>
<path fill="#000000" opacity="1.000000" stroke="none" 
	d="
M515.418945,824.857788 
	C492.464294,827.017273 475.525879,815.847900 470.733063,795.786438 
	C465.453918,773.689331 481.345917,751.729248 504.030731,749.763123 
	C511.555939,749.110962 518.979858,749.378235 526.143677,752.106079 
	C541.441223,757.931152 551.505188,773.518921 549.890198,788.879578 
	C547.886108,807.941040 536.056946,821.414124 518.809692,824.277893 
	C517.826477,824.441162 516.841614,824.594238 515.418945,824.857788 
M531.199219,786.938049 
	C530.745422,779.229187 529.449707,771.734802 525.220703,765.075134 
	C518.110901,753.878845 503.988342,752.410522 495.618439,761.951355 
	C484.536835,774.583313 486.191254,802.654297 498.680786,813.910339 
	C507.951569,822.265503 521.112122,819.990173 526.933777,808.988708 
	C530.442749,802.357727 531.360413,795.163879 531.199219,786.938049 
z"/>
<path fill="#000000" opacity="1.000000" stroke="none" 
	d="
M752.212646,818.025330 
	C759.272766,817.057007 760.505615,815.810364 760.537720,808.986694 
	C760.606750,794.345337 760.586304,779.703003 760.485352,765.061890 
	C760.457947,761.078003 759.790588,757.300415 754.667358,756.643555 
	C752.847290,756.410217 751.519592,755.413025 751.789246,753.299927 
	C752.083618,750.993713 753.984924,751.032959 755.604797,751.028137 
	C770.921631,750.982300 786.238708,750.988220 801.555664,751.004761 
	C803.245422,751.006592 805.234314,751.106812 805.646423,753.094055 
	C806.630493,757.839722 806.508423,762.685669 806.252991,767.505127 
	C806.191589,768.663879 805.187561,769.088318 804.111511,769.202087 
	C802.600891,769.361877 801.355957,768.816833 800.982605,767.336914 
	C798.351685,756.907532 790.188354,757.118225 781.947998,757.217773 
	C778.639160,757.257751 776.999146,758.484314 777.049255,761.917847 
	C777.131836,767.577026 777.111328,773.238464 777.061218,778.898376 
	C777.037170,781.610352 778.227234,782.888733 780.970398,782.794739 
	C783.464905,782.709229 785.964417,782.776123 788.459717,782.705200 
	C791.598450,782.616028 793.877991,781.284180 794.809387,778.105164 
	C795.425903,776.000916 796.475220,774.340454 799.037842,774.976746 
	C801.436035,775.572266 801.179810,777.668152 801.196899,779.454956 
	C801.244690,784.449097 801.222656,789.444153 801.188904,794.438599 
	C801.177246,796.159973 801.003357,797.845459 798.771423,798.167786 
	C796.734436,798.461853 795.849548,797.284973 795.056335,795.611694 
	C792.857117,790.972168 783.604736,788.139099 778.783386,790.442017 
	C777.270325,791.164673 777.124634,792.439392 777.124329,793.764343 
	C777.123108,799.588928 777.180786,805.413574 777.230347,811.238098 
	C777.261902,814.949402 779.275513,816.667603 782.861572,816.772400 
	C785.024292,816.835510 787.197449,816.781616 789.348145,816.976562 
	C796.951477,817.665588 802.193909,814.512634 805.164551,807.502563 
	C805.488342,806.738403 805.923096,806.021851 806.294556,805.277344 
	C807.028870,803.805542 807.984741,802.858337 809.839111,803.386841 
	C811.850830,803.960144 812.471375,805.317932 812.087341,807.191284 
	C811.152344,811.752075 810.134644,816.295776 809.162720,820.848999 
	C808.682556,823.098572 807.156311,823.564087 805.081543,823.564819 
	C788.103333,823.570801 771.125122,823.658142 754.146912,823.668274 
	C752.532715,823.669250 750.651306,823.751099 750.027039,821.670898 
	C749.526245,820.002441 750.085449,818.731445 752.212646,818.025330 
z"/>
<path fill="#000000" opacity="1.000000" stroke="none" 
	d="
M243.857651,755.747864 
	C234.482193,760.162231 233.630173,769.026611 241.988846,774.435730 
	C247.560074,778.040955 253.822235,780.589844 259.338135,784.267029 
	C274.724304,794.524597 273.420685,813.590759 256.976624,822.049622 
	C253.513443,823.831116 249.792114,824.717896 245.987717,825.129272 
	C243.356247,825.413879 240.650558,825.411560 238.012344,825.167175 
	C224.413589,823.907410 218.261292,816.095764 220.256042,802.888062 
	C220.496719,801.294556 221.427246,800.585449 222.780182,800.190247 
	C224.375305,799.724182 225.297729,800.633972 225.970657,801.901306 
	C227.372955,804.542358 228.532822,807.341370 230.182220,809.815552 
	C233.196045,814.336365 236.872910,818.152222 242.700531,818.851379 
	C247.229340,819.394714 250.961533,818.158264 253.203247,813.881470 
	C255.548218,809.407715 255.065460,805.203125 251.766525,801.387512 
	C249.323959,798.562439 246.074066,796.836853 242.859955,795.067932 
	C239.363937,793.143921 235.757523,791.373169 232.454361,789.155579 
	C224.832214,784.038391 220.389618,777.184753 222.288116,767.598145 
	C224.148788,758.202637 231.240097,751.582703 241.080185,749.971741 
	C247.721832,748.884338 254.309448,749.393372 260.825897,751.222473 
	C263.632111,752.010071 265.028351,753.530334 265.238892,756.433105 
	C265.442780,759.244690 266.017334,762.028992 266.234985,764.840271 
	C266.383423,766.757385 266.911530,769.083618 264.261902,769.851013 
	C261.493988,770.652710 260.939301,768.271301 260.130554,766.538208 
	C256.964081,759.752625 252.723145,754.603821 243.857651,755.747864 
z"/>
<path fill="#000000" opacity="1.000000" stroke="none" 
	d="
M379.617981,757.629639 
	C377.539825,759.179260 377.966003,761.137695 377.954712,762.908691 
	C377.857391,778.238159 377.662231,793.569702 377.839020,808.896729 
	C377.904144,814.541382 378.002319,817.277710 385.733521,817.903687 
	C387.578522,818.053101 388.991425,818.872131 388.957855,820.971924 
	C388.921631,823.239502 387.297272,823.567017 385.483337,823.564575 
	C375.322144,823.551086 365.160858,823.564270 354.999908,823.509216 
	C353.259613,823.499817 351.041901,823.960571 350.777496,821.235840 
	C350.505981,818.437622 352.542450,817.945557 354.645294,817.782104 
	C359.723267,817.387390 361.529419,814.111267 361.552582,809.639282 
	C361.636414,793.475525 361.554016,777.310913 361.596252,761.146790 
	C361.603424,758.400330 360.511505,757.367798 357.716888,757.306702 
	C347.701324,757.087646 345.275604,758.597229 341.780243,768.000549 
	C341.052917,769.957153 340.428040,771.977661 337.825897,771.654724 
	C334.780548,771.276794 335.583618,768.791931 335.654419,766.941589 
	C335.845306,761.951416 336.253418,756.969788 336.472473,751.980286 
	C336.630951,748.370483 338.365997,747.383240 341.288055,749.260864 
	C343.721161,750.824341 346.276306,750.939392 348.944702,750.942017 
	C362.442749,750.955261 375.940857,750.943848 389.438812,750.982849 
	C392.480927,750.991638 395.337830,750.676819 398.050018,748.997864 
	C400.040527,747.765625 402.106262,747.957458 402.327118,750.934448 
	C402.745514,756.573059 403.017181,762.223511 403.275604,767.872437 
	C403.345032,769.390259 403.233612,770.962708 401.132751,771.177124 
	C399.374390,771.356567 398.267761,770.592468 397.733978,768.937134 
	C397.682861,768.778564 397.651459,768.611694 397.584320,768.460510 
	C392.773621,757.628967 391.536407,756.855530 379.617981,757.629639 
z"/>
<path fill="#000000" opacity="1.000000" stroke="none" 
	d="
M690.328979,497.088318 
	C676.153259,493.499512 671.404968,484.577911 675.948303,471.136688 
	C678.879700,462.463989 683.668335,456.363312 693.657654,455.394836 
	C707.026672,454.098724 715.760193,462.643646 714.224670,476.114685 
	C712.909851,487.649872 702.453064,497.014160 690.328979,497.088318 
z"/>
</svg>